<?xml version="1.0" encoding="UTF-8"?>
<svg xmlns="http://www.w3.org/2000/svg" version="1.1" viewBox="0 0 293.3 507.5">
  <defs>
    <style>
      .cls-1 {
        fill: #3f5765;
      }
    </style>
  </defs>
  <!-- Generator: Adobe Illustrator 28.6.0, SVG Export Plug-In . SVG Version: 1.2.0 Build 709)  -->
  <g>
    <g id="Capa_1">
      <path class="cls-1" d="M292.5,476.7v-16.4h-8.4c-4.1,14.9-17.7,25.8-33.9,25.8s-22.8-6.2-29.1-15.5-12-10.3-19.9-10.3H0v18.2c12.7,10.1,52.3,29,141.9,29,114.6,0,144.8-23.9,150.6-30.8Z"/>
      <rect class="cls-1" x=".8" y="122.7" width="6.9" height="178.3"/>
      <path class="cls-1" d="M293.3,475.7c0,4.7-25.1,14.9-29.9,14.9l-247.2-3.8c-5.2,0-16.2-7.3-16.2-11.7L.4,7.9C.4,3.5,4.6,0,9.8,0h273.6c5.2,0,9.5,3.5,9.5,7.9l.4,467.8ZM.8,475.1c0,4,10.7,11.1,15.5,11.1l247.2,3.8c4.9,0,29.1-10.3,29.1-14.2l-.4-467.8c0-4-3.9-7.3-8.7-7.3H9.8C5,.6,1.1,3.9,1.1,7.9l-.4,467.2Z"/>
      <path class="cls-1" d="M251.9,482c-1.1,0-2.2,0-3.4,0,0,0-.2,0-.3,0-1.9-.1-3.8-.4-5.6-.9-6.8-1.8-12.4-5.4-16.7-10.8-3.7-4.7-5.9-10-6.6-15.9,0-.6-.1-1.2-.2-1.8v-3.4c0-.2,0-.3,0-.5.2-2.9.8-5.8,1.8-8.5,2.4-6.5,6.5-11.6,12.3-15.4,4.1-2.7,8.7-4.3,13.6-4.8.6,0,1.3-.1,1.9-.2h3c.2,0,.4,0,.5,0,3,.2,6,.8,8.8,1.9,6.4,2.4,11.5,6.5,15.3,12.2,2.7,4.1,4.3,8.7,4.9,13.6,0,.6.1,1.3.2,1.9,0,1,0,2,0,3.1,0,.4,0,.7-.1,1.1-.3,3.8-1.3,7.5-3,11-2.5,5.2-6.2,9.4-11.1,12.6-4.1,2.7-8.6,4.3-13.5,4.8-.6,0-1.2.1-1.8.2ZM227.5,461.4c0,1.2.5,2.2,1.6,2.7.5.2.8.6.8,1.1,0,1.1.8,2.1,1.9,2.4.3,0,.6.1.9.2.6.1,1,.4,1.2.9.2.3.3.7.4,1,.3.8.7,1.4,1.4,1.9,5.6,3.8,11.7,5.2,18.4,4.3,3.6-.5,6.8-1.8,9.9-3.7,1-.7,2-1.4,2.3-2.6.3-1.1.9-1.7,2.1-1.9,1.4-.2,2.2-1.2,2.3-2.6,0-.4.2-.7.6-.9,1.3-.6,1.8-1.4,1.7-2.9,0-.4.1-.7.5-1,.8-.6,1.2-1.4,1.2-2.3,0-.5,0-1,.2-1.5.4-1.7-.6-3.4-2.3-3.8-.9-.2-1.7,0-2.5.5-3.2,1.9-6.6,3.4-10.1,4.4-5,1.4-10,1.7-15.1.9-2.5-.4-5-1.1-7.4-2-2.5-.9-4.8-2.1-7.1-3.4-1.2-.7-2.3-.6-3.4.1-1.1.8-1.5,1.9-1.2,3.2.1.6.2,1.2.2,1.8,0,.9.4,1.6,1.1,2.1.5.3.7.7.6,1.2ZM263.4,437.2c0,2.4.8,4.4,2.2,6.1.8,1.1,1.8,2,3.1,2.5,1.3.5,2.7.8,4,.4,1.2-.3,1.9-1.3,1.7-2.6,0-.4-.2-.9-.3-1.3-1.3-3.6-3.3-6.7-5.9-9.4-.2-.2-.5-.4-.8-.6-1-.4-2.1,0-2.8.9-.9,1.2-1.1,2.6-1.1,3.9ZM237.1,437.6c0-1.7-.3-2.8-.9-3.9-.8-1.4-2.5-2.2-4.1-.5-1.8,1.9-3.3,4-4.5,6.3-.6,1.2-1.2,2.4-1.5,3.7-.4,1.7.4,2.9,2,3.1,1.8.3,3.5-.1,5-1.3,2.6-2,3.8-4.7,3.9-7.5ZM250.3,425.5c-1.3.1-2.6.2-3.9.4-1.7.2-3.3.7-4.9,1.3-.2,0-.3.2-.2.4.2.4.3.9.6,1.2.8,1.1,1.9,1.6,3.1,2,2.7.9,5.4,1,8.2.6,1.4-.2,2.8-.6,4.1-1.4.9-.6,1.6-1.3,1.9-2.4,0-.2,0-.3-.2-.4-2.8-1-5.7-1.6-8.7-1.6Z"/>
    </g>
  </g>
</svg>