<?xml version="1.0" encoding="utf-8"?>
<!-- Generator: Adobe Illustrator 25.2.1, SVG Export Plug-In . SVG Version: 6.00 Build 0)  -->
<svg version="1.1" id="Capa_1" xmlns="http://www.w3.org/2000/svg" xmlns:xlink="http://www.w3.org/1999/xlink" x="0px" y="0px"
	 viewBox="0 0 1500 1500" style="enable-background:new 0 0 1500 1500;" xml:space="preserve">
<style type="text/css">
	.st0{fill:#D3D3D3;stroke:#000000;stroke-width:9;stroke-miterlimit:10;}
	.st1{fill:#EAE8EA;stroke:#000000;stroke-width:9;stroke-miterlimit:10;}
</style>
<g>
	<path class="st0" d="M1165.82,1323.03c62.26,0,112.76-49.66,112.76-110.89V311.35c0-61.24-50.51-110.89-112.76-110.89H334.18
		c-62.27,0-112.75,49.64-112.75,110.89v900.79c0,61.23,50.48,110.89,112.75,110.89H1165.82z"/>
	<g>
		<path class="st1" d="M1226.23,862.56c49.9,0,90.34-50.48,90.34-112.76V355.13c0-62.27-40.44-112.76-90.34-112.76l0,0
			c-49.91,0-90.35,50.49-90.35,112.76V749.8C1135.87,812.08,1176.31,862.56,1226.23,862.56L1226.23,862.56z"/>
		<path class="st1" d="M1277.46,862.56c49.91,0,90.35-50.48,90.35-112.76V355.13c0-62.27-40.44-112.76-90.35-112.76l0,0
			c-49.9,0-90.34,50.49-90.34,112.76V749.8C1187.12,812.08,1227.56,862.56,1277.46,862.56L1277.46,862.56z"/>
	</g>
	<g>
		<path class="st1" d="M254.3,862.56c-49.91,0-90.35-50.48-90.35-112.76V355.13c0-62.27,40.44-112.76,90.35-112.76l0,0
			c49.9,0,90.34,50.49,90.34,112.76V749.8C344.64,812.08,304.2,862.56,254.3,862.56L254.3,862.56z"/>
		<path class="st1" d="M203.05,862.56c-49.9,0-90.32-50.48-90.32-112.76V355.13c0-62.27,40.42-112.76,90.32-112.76l0,0
			c49.91,0,90.35,50.49,90.35,112.76V749.8C293.41,812.08,252.97,862.56,203.05,862.56L203.05,862.56z"/>
	</g>
	<path class="st1" d="M1336.65,342.72c69.13,0,106-37.1,106-82.87l0,0c0-45.77-36.86-82.88-106-82.88H163.33
		c-69.12,0-105.98,37.11-105.98,82.88l0,0c0,45.77,36.86,82.87,105.98,82.87H1336.65z"/>
</g>
</svg>
